<svg width="60" height="60" viewBox="0 0 60 60" fill="none" xmlns="http://www.w3.org/2000/svg">
<path fill-rule="evenodd" clip-rule="evenodd" d="M47.463 42.3633C46.74 44.4099 43.866 46.103 41.574 46.5981C40.005 46.9312 37.959 47.1948 31.065 44.3379C23.322 41.1299 12.57 29.7029 12.57 22.0986C12.57 18.2275 14.802 13.7197 18.705 13.7197C20.583 13.7197 20.997 13.7563 21.615 15.2388C22.338 16.9853 24.102 21.2884 24.312 21.7295C25.179 23.539 23.43 24.5983 22.161 26.1738C21.756 26.6479 21.297 27.1607 21.81 28.043C22.32 28.9072 24.084 31.7822 26.676 34.0898C30.024 37.0727 32.739 38.0251 33.711 38.4302C34.434 38.7303 35.298 38.6604 35.826 38.0962C36.495 37.373 37.326 36.1731 38.172 34.9907C38.769 34.1445 39.528 34.0388 40.323 34.3389C40.86 34.5249 47.685 37.6945 47.973 38.2017C48.186 38.5708 48.186 40.3167 47.463 42.3633ZM30.006 0H29.991C13.452 0 0 13.4561 0 30C0 36.56 2.11502 42.646 5.71202 47.5825L1.97401 58.73L13.503 55.0459C18.246 58.1849 23.907 60 30.006 60C46.545 60 60 46.5439 60 30C60 13.4561 46.545 0 30.006 0Z" fill="#ED39A5"/>
</svg>
