<svg width="50" height="50" viewBox="0 0 50 50" fill="none" xmlns="http://www.w3.org/2000/svg">
<path d="M25 0.0999756C11.25 0.0999756 0 11.325 0 25.15C0 37.65 9.15 48.025 21.1 49.9V32.4H14.75V25.15H21.1V19.625C21.1 13.35 24.825 9.89998 30.55 9.89998C33.275 9.89998 36.125 10.375 36.125 10.375V16.55H32.975C29.875 16.55 28.9 18.475 28.9 20.45V25.15H35.85L34.725 32.4H28.9V49.9C34.791 48.9695 40.1555 45.9638 44.0247 41.425C47.894 36.8865 50.0135 31.114 50 25.15C50 11.325 38.75 0.0999756 25 0.0999756Z" fill="#ED39A5"/>
</svg>
