<svg width="20" height="13" viewBox="0 0 20 13" fill="none" xmlns="http://www.w3.org/2000/svg">
<path d="M5.0625 2.875C5.04688 2.89844 5.03906 2.92969 5.03906 2.96875C5.03906 3.00781 5.04297 3.03906 5.05078 3.0625C4.94922 3.10938 4.88672 3.14062 4.86328 3.15625C4.83984 3.17188 4.82031 3.1875 4.80469 3.20312C4.79688 3.26562 4.78125 3.31641 4.75781 3.35547C4.74219 3.39453 4.74219 3.4375 4.75781 3.48438C4.83594 3.57812 4.88281 3.62891 4.89844 3.63672C4.92969 3.65234 4.96094 3.66406 4.99219 3.67188C5.02344 3.67188 5.04688 3.68359 5.0625 3.70703C5.14062 3.71484 5.17969 3.72266 5.17969 3.73047C5.1875 3.73047 5.19922 3.73438 5.21484 3.74219C5.27734 3.75781 5.32812 3.76172 5.36719 3.75391C5.40625 3.73828 5.44922 3.71484 5.49609 3.68359C5.56641 3.64453 5.61719 3.59375 5.64844 3.53125C5.66406 3.50781 5.67578 3.48047 5.68359 3.44922C5.69141 3.41797 5.70703 3.39453 5.73047 3.37891C5.76953 3.26953 5.78906 3.1875 5.78906 3.13281C5.79688 3.07031 5.79688 3.00781 5.78906 2.94531C5.75781 2.875 5.74609 2.83594 5.75391 2.82812C5.76172 2.82031 5.76562 2.8125 5.76562 2.80469C5.71875 2.70312 5.67969 2.63281 5.64844 2.59375C5.625 2.54688 5.59766 2.50781 5.56641 2.47656C5.52734 2.40625 5.48828 2.34766 5.44922 2.30078C5.41797 2.24609 5.375 2.19922 5.32031 2.16016C5.30469 2.12109 5.28125 2.09375 5.25 2.07812C5.22656 2.0625 5.20703 2.03516 5.19141 1.99609C5.14453 1.98047 5.10547 1.95313 5.07422 1.91406C5.05078 1.875 5.01562 1.84766 4.96875 1.83203C4.89844 1.76172 4.84766 1.72266 4.81641 1.71484C4.79297 1.70703 4.76172 1.69531 4.72266 1.67969C4.67578 1.65625 4.62891 1.63281 4.58203 1.60938C4.54297 1.57813 4.49219 1.55078 4.42969 1.52734C4.33594 1.47266 4.26562 1.44922 4.21875 1.45703C4.17188 1.45703 4.12891 1.44922 4.08984 1.43359C4.00391 1.39453 3.96094 1.36719 3.96094 1.35156C3.9375 1.35156 3.91406 1.35547 3.89062 1.36328C3.86719 1.36328 3.84375 1.35937 3.82031 1.35156C3.76562 1.32812 3.73047 1.32031 3.71484 1.32812C3.70703 1.32812 3.69531 1.32812 3.67969 1.32812C3.57031 1.29688 3.5 1.28516 3.46875 1.29297C3.44531 1.29297 3.41797 1.29297 3.38672 1.29297H3.22266C3.20703 1.29297 3.18359 1.29297 3.15234 1.29297C3.12891 1.28516 3.10938 1.28125 3.09375 1.28125C3.03125 1.29688 2.98438 1.29688 2.95312 1.28125C2.91406 1.29688 2.86719 1.3125 2.8125 1.32812C2.75781 1.33594 2.71094 1.35156 2.67188 1.375C2.61719 1.38281 2.57031 1.38672 2.53125 1.38672C2.44531 1.41016 2.39062 1.42969 2.36719 1.44531C2.34375 1.45312 2.32031 1.46094 2.29688 1.46875C2.26562 1.47656 2.24219 1.49219 2.22656 1.51562C2.21094 1.53125 2.1875 1.53906 2.15625 1.53906C2.05469 1.58594 2.00391 1.63281 2.00391 1.67969C1.96484 1.70312 1.92578 1.73828 1.88672 1.78516C1.87109 1.80078 1.85547 1.82812 1.83984 1.86719C1.83203 1.90625 1.8125 1.93359 1.78125 1.94922C1.77344 2.01172 1.74609 2.06641 1.69922 2.11328C1.68359 2.17578 1.66797 2.24219 1.65234 2.3125C1.64453 2.375 1.625 2.42969 1.59375 2.47656C1.60156 2.53906 1.60156 2.60547 1.59375 2.67578C1.58594 2.73828 1.56641 2.80078 1.53516 2.86328C1.54297 2.94922 1.54688 2.99609 1.54688 3.00391C1.5625 3.06641 1.58203 3.125 1.60547 3.17969C1.62891 3.22656 1.64062 3.28906 1.64062 3.36719C1.67969 3.4375 1.70703 3.47656 1.72266 3.48438C1.74609 3.49219 1.75 3.51172 1.73438 3.54297C1.78125 3.57422 1.82422 3.61328 1.86328 3.66016C1.92578 3.71484 1.95312 3.75 1.94531 3.76562C1.94531 3.77344 1.94922 3.78125 1.95703 3.78906C1.98047 3.8125 2.00781 3.83203 2.03906 3.84766C2.07031 3.85547 2.09375 3.87891 2.10938 3.91797C2.17188 3.91797 2.22266 3.94531 2.26172 4C2.31641 4 2.36719 4.01953 2.41406 4.05859C2.46094 4.08984 2.50391 4.125 2.54297 4.16406C2.59766 4.15625 2.63281 4.16797 2.64844 4.19922C2.67188 4.22266 2.71484 4.23047 2.77734 4.22266C2.83984 4.26172 2.87109 4.28516 2.87109 4.29297C2.87891 4.30078 2.89062 4.30469 2.90625 4.30469C3 4.35938 3.07812 4.39453 3.14062 4.41016C3.21094 4.43359 3.25781 4.45703 3.28125 4.48047C3.35156 4.50391 3.39844 4.52344 3.42188 4.53906C3.45312 4.55469 3.48828 4.57031 3.52734 4.58594C3.60547 4.625 3.66016 4.64062 3.69141 4.63281C3.75391 4.67188 3.79688 4.69531 3.82031 4.70312C3.84375 4.70312 3.86719 4.71094 3.89062 4.72656C3.95312 4.76562 4.01953 4.80469 4.08984 4.84375C4.16016 4.88281 4.24219 4.91016 4.33594 4.92578C4.39844 4.94141 4.43359 4.94922 4.44141 4.94922C4.44922 4.94141 4.46094 4.94141 4.47656 4.94922C4.49219 4.95703 4.50781 4.96875 4.52344 4.98438C4.54688 5 4.56641 5.01562 4.58203 5.03125C4.60547 5.05469 4.64062 5.07422 4.6875 5.08984C4.74219 5.10547 4.78125 5.12891 4.80469 5.16016C4.90625 5.19922 4.95703 5.21875 4.95703 5.21875C4.97266 5.22656 4.98828 5.24219 5.00391 5.26562C5.01953 5.28906 5.04688 5.29688 5.08594 5.28906C5.16406 5.35156 5.21875 5.39453 5.25 5.41797C5.28125 5.44141 5.3125 5.46094 5.34375 5.47656C5.41406 5.52344 5.45312 5.55469 5.46094 5.57031C5.47656 5.58594 5.49609 5.58984 5.51953 5.58203C5.55859 5.62891 5.58984 5.65625 5.61328 5.66406C5.63672 5.67188 5.66406 5.67969 5.69531 5.6875C5.74219 5.73438 5.76953 5.76562 5.77734 5.78125C5.79297 5.79688 5.81641 5.80078 5.84766 5.79297C5.87109 5.86328 5.88672 5.90234 5.89453 5.91016C5.90234 5.91016 5.91016 5.91797 5.91797 5.93359C5.93359 5.94922 5.94922 5.96484 5.96484 5.98047C5.98047 5.99609 5.99609 6.01172 6.01172 6.02734C6.05859 6.11328 6.09375 6.17188 6.11719 6.20312C6.13281 6.21875 6.14844 6.23828 6.16406 6.26172C6.17969 6.28516 6.17969 6.30859 6.16406 6.33203C6.24219 6.39453 6.28125 6.43359 6.28125 6.44922C6.28906 6.45703 6.30078 6.46484 6.31641 6.47266C6.33203 6.56641 6.35938 6.61719 6.39844 6.625C6.38281 6.67188 6.38281 6.71875 6.39844 6.76562C6.41406 6.80469 6.42969 6.84375 6.44531 6.88281C6.46094 6.92188 6.47656 6.96094 6.49219 7C6.50781 7.03125 6.51172 7.07031 6.50391 7.11719C6.51953 7.17188 6.53516 7.21484 6.55078 7.24609C6.56641 7.27734 6.57812 7.30859 6.58594 7.33984C6.59375 7.36328 6.59375 7.39062 6.58594 7.42188C6.58594 7.44531 6.58594 7.46875 6.58594 7.49219C6.60938 7.58594 6.61719 7.63672 6.60938 7.64453C6.60938 7.64453 6.60938 7.64844 6.60938 7.65625C6.63281 7.74219 6.63281 7.80859 6.60938 7.85547C6.59375 7.89453 6.59375 7.92578 6.60938 7.94922C6.59375 8.01172 6.58203 8.05469 6.57422 8.07812C6.57422 8.10156 6.58203 8.12109 6.59766 8.13672C6.57422 8.19141 6.5625 8.23047 6.5625 8.25391C6.57031 8.27734 6.57422 8.29688 6.57422 8.3125C6.54297 8.39062 6.52734 8.44141 6.52734 8.46484C6.52734 8.48828 6.51562 8.50781 6.49219 8.52344C6.47656 8.58594 6.46875 8.625 6.46875 8.64062C6.47656 8.64844 6.47656 8.66016 6.46875 8.67578C6.46094 8.72266 6.44141 8.76562 6.41016 8.80469C6.36328 8.9375 6.31641 9.01953 6.26953 9.05078C6.23047 9.07422 6.21094 9.12109 6.21094 9.19141C6.17969 9.21484 6.16406 9.26172 6.16406 9.33203C6.125 9.35547 6.09766 9.38672 6.08203 9.42578C6.06641 9.45703 6.04688 9.48828 6.02344 9.51953C5.98438 9.53516 5.94531 9.55078 5.90625 9.56641C5.875 9.57422 5.85547 9.60156 5.84766 9.64844C5.76172 9.70312 5.70312 9.74609 5.67188 9.77734C5.64844 9.80859 5.62891 9.84375 5.61328 9.88281C5.51953 9.94531 5.44922 9.99219 5.40234 10.0234C5.35547 10.0625 5.30078 10.0938 5.23828 10.1172C5.15234 10.1641 5.08984 10.1953 5.05078 10.2109C5.01172 10.2344 4.97266 10.2539 4.93359 10.2695C4.87891 10.2852 4.81641 10.293 4.74609 10.293C4.67578 10.3008 4.61328 10.3164 4.55859 10.3398C4.47266 10.3477 4.41406 10.3555 4.38281 10.3633C4.35938 10.3789 4.33203 10.3945 4.30078 10.4102C4.20703 10.4102 4.14844 10.4141 4.125 10.4219C4.10156 10.4375 4.07812 10.4492 4.05469 10.457C4.01562 10.4648 3.97266 10.4688 3.92578 10.4688C3.87891 10.4688 3.83984 10.4688 3.80859 10.4688C3.73828 10.4609 3.69141 10.4609 3.66797 10.4688C3.65234 10.4766 3.63672 10.4844 3.62109 10.4922C3.55078 10.4922 3.50781 10.4961 3.49219 10.5039C3.47656 10.5117 3.46094 10.5195 3.44531 10.5273C3.39844 10.5117 3.35156 10.5078 3.30469 10.5156C3.25781 10.5234 3.20312 10.5195 3.14062 10.5039C3.03125 10.4727 2.95703 10.457 2.91797 10.457C2.88672 10.4648 2.85156 10.4648 2.8125 10.457C2.70312 10.4023 2.625 10.3789 2.57812 10.3867C2.53125 10.3945 2.48438 10.3945 2.4375 10.3867C2.42188 10.3789 2.39844 10.3711 2.36719 10.3633C2.34375 10.3633 2.32031 10.3594 2.29688 10.3516C2.23438 10.3438 2.19922 10.3359 2.19141 10.3281C2.19141 10.3203 2.18359 10.3164 2.16797 10.3164C2.12891 10.3086 2.09375 10.3047 2.0625 10.3047C2.03125 10.3047 2 10.3008 1.96875 10.293C1.95312 10.293 1.92969 10.2891 1.89844 10.2812C1.875 10.2734 1.85156 10.2656 1.82812 10.2578C1.77344 10.2422 1.72266 10.2266 1.67578 10.2109C1.63672 10.1953 1.59766 10.1758 1.55859 10.1523C1.51172 10.1211 1.48047 10.1055 1.46484 10.1055C1.45703 10.1055 1.44922 10.1016 1.44141 10.0938C1.41016 10.0547 1.38672 10.0312 1.37109 10.0234C1.35547 10.0156 1.33984 10.0039 1.32422 9.98828C1.24609 9.96484 1.19531 9.94922 1.17188 9.94141C1.15625 9.92578 1.13281 9.91406 1.10156 9.90625C1.07812 9.89062 1.05469 9.87109 1.03125 9.84766C1.01562 9.82422 0.992188 9.80469 0.960938 9.78906C0.953125 9.75781 0.941406 9.73438 0.925781 9.71875C0.910156 9.70312 0.894531 9.6875 0.878906 9.67188L0.808594 9.53125C0.761719 9.46875 0.730469 9.4375 0.714844 9.4375C0.707031 9.42969 0.699219 9.41797 0.691406 9.40234C0.667969 9.33203 0.652344 9.29297 0.644531 9.28516C0.636719 9.27734 0.632812 9.26953 0.632812 9.26172C0.601562 9.19141 0.589844 9.15234 0.597656 9.14453C0.605469 9.13672 0.609375 9.125 0.609375 9.10938C0.59375 8.99219 0.578125 8.91797 0.5625 8.88672C0.554688 8.84766 0.546875 8.80859 0.539062 8.76953C0.539062 8.74609 0.539062 8.72266 0.539062 8.69922C0.539062 8.66797 0.542969 8.64062 0.550781 8.61719C0.566406 8.52344 0.574219 8.47656 0.574219 8.47656C0.574219 8.4375 0.574219 8.40625 0.574219 8.38281C0.574219 8.35156 0.589844 8.32031 0.621094 8.28906C0.652344 8.17969 0.671875 8.10156 0.679688 8.05469C0.695312 8 0.722656 7.96484 0.761719 7.94922C0.785156 7.87109 0.804688 7.82422 0.820312 7.80859C0.84375 7.78516 0.855469 7.74609 0.855469 7.69141C0.933594 7.63672 0.972656 7.60938 0.972656 7.60938C1.03516 7.5625 1.06641 7.53906 1.06641 7.53906C1.07422 7.53125 1.07812 7.52344 1.07812 7.51562C1.15625 7.48438 1.20312 7.46484 1.21875 7.45703C1.23438 7.44922 1.24219 7.43359 1.24219 7.41016C1.29688 7.39453 1.34375 7.375 1.38281 7.35156C1.42969 7.32812 1.48438 7.31641 1.54688 7.31641C1.5625 7.30078 1.57812 7.29297 1.59375 7.29297C1.60938 7.29297 1.63672 7.28906 1.67578 7.28125C1.72266 7.25 1.75781 7.23438 1.78125 7.23438C1.8125 7.23438 1.83984 7.23438 1.86328 7.23438C1.97266 7.21875 2.03906 7.21484 2.0625 7.22266C2.09375 7.22266 2.12891 7.22656 2.16797 7.23438C2.23047 7.25 2.28906 7.26172 2.34375 7.26953C2.40625 7.27734 2.46875 7.28906 2.53125 7.30469C2.54688 7.34375 2.57422 7.36719 2.61328 7.375C2.65234 7.38281 2.67578 7.40625 2.68359 7.44531C2.73047 7.46094 2.76562 7.48047 2.78906 7.50391C2.82031 7.52734 2.85156 7.55469 2.88281 7.58594C2.89062 7.64062 2.89844 7.67188 2.90625 7.67969C2.92188 7.6875 2.93359 7.69922 2.94141 7.71484C2.97266 7.80859 2.99219 7.87109 3 7.90234C3.01562 7.92578 3.01562 7.95312 3 7.98438C3.00781 8.0625 3.01172 8.11719 3.01172 8.14844C3.01953 8.17188 3.01953 8.19531 3.01172 8.21875C2.98828 8.29688 2.97656 8.35938 2.97656 8.40625C2.96094 8.4375 2.94141 8.46484 2.91797 8.48828C2.89453 8.50391 2.88281 8.53125 2.88281 8.57031C2.85156 8.58594 2.82031 8.60547 2.78906 8.62891C2.75781 8.64453 2.74219 8.67578 2.74219 8.72266C2.6875 8.73047 2.64844 8.76562 2.625 8.82812C2.54688 8.82812 2.48828 8.84766 2.44922 8.88672C2.41016 8.91797 2.35156 8.93359 2.27344 8.93359C2.26562 8.94922 2.25 8.96484 2.22656 8.98047C2.20312 8.98828 2.17969 8.99609 2.15625 9.00391C2.125 9.01172 2.10156 9.01562 2.08594 9.01562C2.07031 9.00781 2.04297 9 2.00391 8.99219C1.98828 8.98438 1.96094 8.98047 1.92188 8.98047C1.89062 8.98047 1.87109 8.97656 1.86328 8.96875C1.76172 8.89844 1.69922 8.83984 1.67578 8.79297C1.65234 8.74609 1.625 8.70703 1.59375 8.67578C1.60938 8.56641 1.62891 8.5 1.65234 8.47656C1.68359 8.44531 1.70312 8.41016 1.71094 8.37109C1.77344 8.37109 1.82031 8.38672 1.85156 8.41797C1.89062 8.44922 1.93359 8.47266 1.98047 8.48828C1.99609 8.51172 1.99609 8.53516 1.98047 8.55859C1.97266 8.58203 1.98047 8.60547 2.00391 8.62891C2.08203 8.67578 2.15625 8.67188 2.22656 8.61719C2.23438 8.60938 2.25391 8.60547 2.28516 8.60547C2.31641 8.59766 2.33984 8.58594 2.35547 8.57031C2.38672 8.55469 2.41406 8.53906 2.4375 8.52344C2.46875 8.5 2.5 8.48438 2.53125 8.47656C2.53906 8.42188 2.56641 8.38281 2.61328 8.35938C2.62891 8.32031 2.63672 8.28125 2.63672 8.24219C2.63672 8.19531 2.65234 8.16016 2.68359 8.13672C2.66797 8.12109 2.66016 8.10156 2.66016 8.07812C2.66797 8.04688 2.66797 8.02344 2.66016 8.00781C2.62891 7.90625 2.60156 7.84375 2.57812 7.82031C2.55469 7.78906 2.53906 7.75391 2.53125 7.71484C2.46094 7.70703 2.39453 7.67578 2.33203 7.62109C2.27734 7.62109 2.24219 7.61719 2.22656 7.60938C2.21094 7.59375 2.18359 7.58203 2.14453 7.57422C2.12109 7.56641 2.09375 7.56641 2.0625 7.57422C2.03125 7.57422 1.99609 7.57422 1.95703 7.57422C1.85547 7.55859 1.78906 7.5625 1.75781 7.58594C1.67188 7.60938 1.61719 7.625 1.59375 7.63281C1.57812 7.64062 1.5625 7.64844 1.54688 7.65625C1.4375 7.69531 1.38672 7.71484 1.39453 7.71484C1.31641 7.76953 1.26953 7.80078 1.25391 7.80859C1.24609 7.81641 1.23828 7.82422 1.23047 7.83203C1.14453 7.90234 1.09375 7.96484 1.07812 8.01953C1.02344 8.07422 0.976562 8.10938 0.9375 8.125C0.9375 8.20312 0.917969 8.27344 0.878906 8.33594C0.871094 8.42969 0.863281 8.50391 0.855469 8.55859C0.847656 8.60547 0.847656 8.65625 0.855469 8.71094C0.871094 8.78906 0.875 8.82812 0.867188 8.82812C0.867188 8.82812 0.867188 8.83203 0.867188 8.83984C0.867188 8.93359 0.878906 8.99609 0.902344 9.02734C0.925781 9.05078 0.929688 9.08203 0.914062 9.12109C0.929688 9.15234 0.945312 9.17969 0.960938 9.20312C0.984375 9.22656 0.992188 9.26562 0.984375 9.32031C1.01562 9.38281 1.04688 9.42188 1.07812 9.4375C1.11719 9.44531 1.14453 9.46094 1.16016 9.48438C1.23828 9.5625 1.28906 9.61328 1.3125 9.63672C1.33594 9.66016 1.36719 9.67969 1.40625 9.69531C1.46094 9.74219 1.49609 9.78516 1.51172 9.82422C1.57422 9.80859 1.62891 9.81641 1.67578 9.84766C1.72266 9.87891 1.76562 9.90625 1.80469 9.92969C1.85938 9.92188 1.89844 9.92969 1.92188 9.95312C1.95312 9.96875 1.98438 9.98438 2.01562 10C2.05469 9.99219 2.08594 9.99219 2.10938 10C2.14062 10.0078 2.16797 10.0117 2.19141 10.0117C2.25391 10.0117 2.29297 10.0156 2.30859 10.0234C2.33203 10.0391 2.35938 10.0469 2.39062 10.0469C2.49219 10.0625 2.5625 10.0742 2.60156 10.082C2.64062 10.0898 2.67578 10.1055 2.70703 10.1289C2.78516 10.1133 2.86328 10.1133 2.94141 10.1289C3.02734 10.1445 3.09375 10.168 3.14062 10.1992C3.17969 10.1836 3.21875 10.1758 3.25781 10.1758C3.30469 10.1758 3.34375 10.1836 3.375 10.1992C3.46094 10.1758 3.51562 10.1641 3.53906 10.1641C3.5625 10.1719 3.58984 10.1758 3.62109 10.1758C3.66016 10.1758 3.69141 10.1719 3.71484 10.1641C3.74609 10.1562 3.78906 10.1523 3.84375 10.1523C3.92188 10.1445 3.96484 10.1406 3.97266 10.1406C4.05078 10.1016 4.10547 10.082 4.13672 10.082C4.16797 10.082 4.19922 10.0781 4.23047 10.0703C4.30859 10.0469 4.35156 10.0352 4.35938 10.0352C4.4375 10.0273 4.49609 10.0117 4.53516 9.98828C4.58203 10.0039 4.625 10 4.66406 9.97656C4.74219 9.94531 4.78906 9.93359 4.80469 9.94141C4.82812 9.94141 4.84766 9.9375 4.86328 9.92969C4.94922 9.90625 5.00391 9.88672 5.02734 9.87109C5.05078 9.84766 5.07422 9.83984 5.09766 9.84766C5.11328 9.82422 5.13281 9.80859 5.15625 9.80078C5.1875 9.78516 5.21484 9.76562 5.23828 9.74219C5.27734 9.71875 5.30859 9.69141 5.33203 9.66016C5.36328 9.62891 5.39453 9.59766 5.42578 9.56641C5.44922 9.55078 5.46875 9.53906 5.48438 9.53125C5.5 9.52344 5.51953 9.51172 5.54297 9.49609C5.55078 9.47266 5.55859 9.44531 5.56641 9.41406C5.57422 9.38281 5.58594 9.35938 5.60156 9.34375C5.63281 9.30469 5.65234 9.28125 5.66016 9.27344C5.67578 9.25781 5.69141 9.23438 5.70703 9.20312C5.74609 9.14844 5.76172 9.11719 5.75391 9.10938C5.74609 9.10156 5.75 9.09375 5.76562 9.08594C5.82031 9.03125 5.84766 9 5.84766 8.99219C5.84766 8.98438 5.85547 8.97266 5.87109 8.95703C5.88672 8.94141 5.89453 8.91797 5.89453 8.88672C5.90234 8.84766 5.91016 8.80859 5.91797 8.76953C5.92578 8.73047 5.93359 8.69531 5.94141 8.66406C5.95703 8.63281 5.96484 8.59766 5.96484 8.55859C5.96484 8.52734 5.95703 8.5 5.94141 8.47656C5.92578 8.45312 5.92578 8.42188 5.94141 8.38281C5.92578 8.28125 5.91016 8.21094 5.89453 8.17188C5.88672 8.125 5.88281 8.08203 5.88281 8.04297C5.85938 7.98047 5.83984 7.94141 5.82422 7.92578C5.81641 7.91016 5.8125 7.89062 5.8125 7.86719C5.78906 7.85156 5.77344 7.83594 5.76562 7.82031C5.75781 7.79688 5.74219 7.76953 5.71875 7.73828C5.69531 7.68359 5.67578 7.65234 5.66016 7.64453C5.65234 7.62891 5.64062 7.61328 5.625 7.59766C5.58594 7.51172 5.5625 7.46484 5.55469 7.45703C5.49219 7.41016 5.45312 7.37109 5.4375 7.33984C5.40625 7.32422 5.37891 7.30859 5.35547 7.29297C5.33984 7.26953 5.31641 7.24609 5.28516 7.22266C5.21484 7.16797 5.17188 7.14062 5.15625 7.14062C5.14844 7.14062 5.13672 7.13672 5.12109 7.12891C5.07422 7.08984 5.03516 7.0625 5.00391 7.04688C4.94922 7.01562 4.91797 6.99609 4.91016 6.98828C4.91016 6.98047 4.90234 6.96875 4.88672 6.95312C4.82422 6.92188 4.78125 6.91016 4.75781 6.91797C4.73438 6.92578 4.71484 6.92188 4.69922 6.90625C4.64453 6.86719 4.60547 6.83984 4.58203 6.82422C4.56641 6.80859 4.54688 6.79297 4.52344 6.77734L4.35938 6.67188C4.28125 6.65625 4.22656 6.63672 4.19531 6.61328C4.17188 6.58984 4.14062 6.57812 4.10156 6.57812C4.04688 6.53906 4.00391 6.51953 3.97266 6.51953C3.89453 6.48047 3.85156 6.46094 3.84375 6.46094C3.83594 6.45312 3.82422 6.45312 3.80859 6.46094C3.69922 6.4375 3.60938 6.42188 3.53906 6.41406C3.47656 6.40625 3.43359 6.38281 3.41016 6.34375C3.37109 6.34375 3.33594 6.33203 3.30469 6.30859C3.28125 6.28516 3.25 6.26172 3.21094 6.23828C3.19531 6.22266 3.17578 6.21484 3.15234 6.21484C3.12891 6.20703 3.10938 6.19531 3.09375 6.17969C3.0625 6.15625 3.03516 6.14844 3.01172 6.15625C2.98828 6.15625 2.96875 6.15234 2.95312 6.14453C2.875 6.11328 2.82422 6.08594 2.80078 6.0625C2.76172 6.04688 2.72266 6.03125 2.68359 6.01562C2.65234 6 2.61719 5.98438 2.57812 5.96875C2.53125 5.9375 2.48828 5.92188 2.44922 5.92188C2.36328 5.91406 2.3125 5.88281 2.29688 5.82812C2.26562 5.83594 2.24219 5.83594 2.22656 5.82812C2.21875 5.82031 2.19922 5.81641 2.16797 5.81641C2.08203 5.77734 2.01953 5.75 1.98047 5.73438C1.94922 5.71094 1.91406 5.69141 1.875 5.67578C1.84375 5.66016 1.82031 5.64453 1.80469 5.62891C1.78906 5.61328 1.76172 5.59375 1.72266 5.57031C1.66797 5.53125 1.63672 5.50781 1.62891 5.5C1.62109 5.48438 1.60938 5.47266 1.59375 5.46484C1.53125 5.41016 1.49609 5.38672 1.48828 5.39453C1.48828 5.39453 1.48438 5.39062 1.47656 5.38281C1.41406 5.33594 1.36719 5.28906 1.33594 5.24219C1.30469 5.20312 1.26172 5.16016 1.20703 5.11328C1.14453 5.05078 1.10547 5.01953 1.08984 5.01953C1.08203 5.01172 1.07031 4.99219 1.05469 4.96094C1.00781 4.90625 0.976562 4.85938 0.960938 4.82031C0.953125 4.77344 0.933594 4.73438 0.902344 4.70312C0.855469 4.63281 0.824219 4.57812 0.808594 4.53906C0.792969 4.49219 0.765625 4.45312 0.726562 4.42188C0.710938 4.33594 0.691406 4.28125 0.667969 4.25781C0.683594 4.21875 0.683594 4.18359 0.667969 4.15234C0.652344 4.12109 0.640625 4.08984 0.632812 4.05859C0.632812 3.98047 0.628906 3.93359 0.621094 3.91797C0.613281 3.90234 0.617188 3.88672 0.632812 3.87109C0.617188 3.79297 0.601562 3.74609 0.585938 3.73047C0.570312 3.70703 0.5625 3.68359 0.5625 3.66016C0.5625 3.62891 0.566406 3.58594 0.574219 3.53125C0.589844 3.47656 0.597656 3.42969 0.597656 3.39062C0.605469 3.28906 0.613281 3.23047 0.621094 3.21484C0.628906 3.19141 0.636719 3.16797 0.644531 3.14453C0.675781 3.05078 0.699219 2.98047 0.714844 2.93359C0.761719 2.80859 0.796875 2.73047 0.820312 2.69922C0.851562 2.66016 0.867188 2.60938 0.867188 2.54688C0.882812 2.53125 0.894531 2.51562 0.902344 2.5C0.910156 2.47656 0.929688 2.46094 0.960938 2.45312C0.96875 2.375 1 2.30469 1.05469 2.24219C1.0625 2.1875 1.07422 2.15625 1.08984 2.14844C1.10547 2.14062 1.10938 2.12109 1.10156 2.08984C1.15625 2.01953 1.1875 1.98047 1.19531 1.97266C1.20312 1.95703 1.20703 1.94141 1.20703 1.92578C1.31641 1.83984 1.39844 1.75 1.45312 1.65625C1.5 1.61719 1.52734 1.58984 1.53516 1.57422C1.55078 1.55859 1.55859 1.54297 1.55859 1.52734C1.65234 1.45703 1.71484 1.41797 1.74609 1.41016C1.77734 1.39453 1.80078 1.375 1.81641 1.35156C1.88672 1.33594 1.92578 1.32422 1.93359 1.31641C1.94922 1.30078 1.96484 1.28906 1.98047 1.28125C2.05078 1.24219 2.08984 1.22266 2.09766 1.22266C2.18359 1.19922 2.23438 1.18359 2.25 1.17578C2.26562 1.16016 2.28125 1.14844 2.29688 1.14062C2.35938 1.13281 2.41797 1.125 2.47266 1.11719C2.53516 1.10156 2.59766 1.08984 2.66016 1.08203C2.77734 1.04297 2.85938 1.02734 2.90625 1.03516C2.96094 1.03516 3 1.02344 3.02344 1C3.10156 1.00781 3.14844 1.00781 3.16406 1C3.17969 0.992188 3.19531 0.988281 3.21094 0.988281C3.30469 0.996094 3.36328 0.996094 3.38672 0.988281C3.41797 0.972656 3.45312 0.96875 3.49219 0.976562C3.58594 1.00781 3.65625 1.01563 3.70312 1C3.73438 1.01563 3.76172 1.02344 3.78516 1.02344C3.80859 1.01563 3.83203 1.01953 3.85547 1.03516C3.91016 1.06641 3.94531 1.08203 3.96094 1.08203C3.98438 1.07422 4.00391 1.07422 4.01953 1.08203C4.07422 1.10547 4.10547 1.11719 4.11328 1.11719C4.12891 1.10938 4.14453 1.10938 4.16016 1.11719C4.33984 1.14062 4.47266 1.19141 4.55859 1.26953C4.58984 1.27734 4.61719 1.28516 4.64062 1.29297C4.67188 1.29297 4.69141 1.30859 4.69922 1.33984C4.77734 1.35547 4.81641 1.37109 4.81641 1.38672C4.82422 1.39453 4.83594 1.40625 4.85156 1.42188C5.03906 1.46875 5.14453 1.52734 5.16797 1.59766C5.23047 1.62891 5.26953 1.64844 5.28516 1.65625C5.30078 1.65625 5.30469 1.66406 5.29688 1.67969C5.35156 1.71094 5.375 1.73437 5.36719 1.75C5.36719 1.75781 5.375 1.76563 5.39062 1.77344C5.45312 1.82812 5.48047 1.85938 5.47266 1.86719C5.47266 1.86719 5.47656 1.87109 5.48438 1.87891C5.51562 1.90234 5.53906 1.92578 5.55469 1.94922C5.57812 1.97266 5.59766 2 5.61328 2.03125C5.67578 2.0625 5.71094 2.08594 5.71875 2.10156C5.73438 2.10938 5.75 2.12109 5.76562 2.13672C5.8125 2.23047 5.84766 2.28906 5.87109 2.3125C5.89453 2.33594 5.91406 2.36328 5.92969 2.39453C5.96094 2.44141 5.98047 2.48047 5.98828 2.51172C6.00391 2.53516 6.01953 2.55859 6.03516 2.58203C6.03516 2.67578 6.03906 2.72656 6.04688 2.73438C6.0625 2.73438 6.07422 2.74219 6.08203 2.75781C6.08984 2.83594 6.08984 2.88281 6.08203 2.89844C6.07422 2.90625 6.07031 2.91797 6.07031 2.93359C6.09375 3.07422 6.08594 3.1875 6.04688 3.27344C6.04688 3.35156 6.04688 3.39062 6.04688 3.39062C6.05469 3.39062 6.05859 3.39844 6.05859 3.41406C6.05078 3.44531 6.03516 3.47266 6.01172 3.49609C5.98828 3.51953 5.97656 3.55469 5.97656 3.60156C5.92188 3.67969 5.88672 3.72656 5.87109 3.74219C5.86328 3.75781 5.85156 3.76953 5.83594 3.77734C5.78125 3.84766 5.74219 3.88281 5.71875 3.88281C5.69531 3.88281 5.67578 3.89062 5.66016 3.90625C5.58984 3.97656 5.53516 4.02344 5.49609 4.04688C5.46484 4.07031 5.41406 4.07812 5.34375 4.07031C5.25781 4.0625 5.20312 4.0625 5.17969 4.07031C5.15625 4.07812 5.12891 4.07422 5.09766 4.05859C5.04297 4.03516 5.00781 4.02734 4.99219 4.03516C4.97656 4.03516 4.95703 4.03125 4.93359 4.02344C4.87109 3.99219 4.83203 3.98047 4.81641 3.98828C4.80859 3.99609 4.79688 3.99219 4.78125 3.97656C4.72656 3.92969 4.68359 3.90625 4.65234 3.90625C4.62891 3.90625 4.60938 3.89844 4.59375 3.88281C4.51562 3.79688 4.48438 3.73828 4.5 3.70703C4.44531 3.55859 4.41797 3.44922 4.41797 3.37891C4.42578 3.30859 4.44531 3.24609 4.47656 3.19141C4.46094 3.17578 4.45703 3.15234 4.46484 3.12109C4.48047 3.08984 4.49609 3.06641 4.51172 3.05078C4.55859 2.98828 4.58594 2.95703 4.59375 2.95703C4.60938 2.95703 4.625 2.94922 4.64062 2.93359C4.71094 2.89453 4.75 2.87109 4.75781 2.86328C4.77344 2.85547 4.78906 2.84766 4.80469 2.83984C4.86719 2.80859 4.91797 2.79688 4.95703 2.80469L5.0625 2.875ZM9.07031 3.55469C9.15625 3.54688 9.20312 3.53906 9.21094 3.53125C9.21875 3.51562 9.23047 3.51562 9.24609 3.53125C9.24609 3.60156 9.25391 3.63672 9.26953 3.63672C9.29297 3.62891 9.30469 3.63281 9.30469 3.64844C9.33594 3.74219 9.33594 3.82422 9.30469 3.89453C9.28125 3.95703 9.27344 4.03125 9.28125 4.11719L9.23438 4.36328C9.1875 4.47266 9.16406 4.55078 9.16406 4.59766C9.17188 4.64453 9.16406 4.67969 9.14062 4.70312C9.15625 4.73438 9.16016 4.76562 9.15234 4.79688C9.14453 4.82031 9.14062 4.85156 9.14062 4.89062C9.16406 4.94531 9.16797 4.98438 9.15234 5.00781C9.14453 5.02344 9.15625 5.03125 9.1875 5.03125L9.25781 4.89062C9.28125 4.88281 9.29688 4.87109 9.30469 4.85547C9.32031 4.83203 9.33984 4.81641 9.36328 4.80859C9.37109 4.76953 9.38281 4.74219 9.39844 4.72656C9.42188 4.71094 9.4375 4.6875 9.44531 4.65625C9.48438 4.64062 9.51172 4.61719 9.52734 4.58594C9.54297 4.55469 9.56641 4.52344 9.59766 4.49219C9.61328 4.47656 9.63281 4.46484 9.65625 4.45703C9.6875 4.44922 9.70703 4.42969 9.71484 4.39844C9.77734 4.375 9.82031 4.35547 9.84375 4.33984C9.86719 4.32422 9.88672 4.30859 9.90234 4.29297C9.98828 4.26172 10.0547 4.24219 10.1016 4.23438C10.1562 4.21875 10.2148 4.20703 10.2773 4.19922C10.3164 4.19922 10.3477 4.19531 10.3711 4.1875C10.3945 4.17969 10.4258 4.16797 10.4648 4.15234C10.5508 4.12891 10.6016 4.11719 10.6172 4.11719C10.6406 4.10938 10.6719 4.10547 10.7109 4.10547C10.75 4.08984 10.7891 4.08203 10.8281 4.08203C10.875 4.07422 10.9219 4.06641 10.9688 4.05859C11.0547 4.08203 11.0977 4.09766 11.0977 4.10547C11.0977 4.11328 11.1016 4.11719 11.1094 4.11719L11.2734 4.14062C11.3516 4.1875 11.4023 4.21094 11.4258 4.21094C11.457 4.20312 11.4883 4.20703 11.5195 4.22266C11.5742 4.26953 11.6094 4.29297 11.625 4.29297C11.6406 4.28516 11.6562 4.28516 11.6719 4.29297C11.7422 4.37109 11.7891 4.41797 11.8125 4.43359C11.8359 4.44141 11.8516 4.46094 11.8594 4.49219C11.9219 4.53125 11.9688 4.58203 12 4.64453C12.0312 4.69922 12.0781 4.74609 12.1406 4.78516C12.1719 4.86328 12.1953 4.91016 12.2109 4.92578C12.2266 4.94141 12.2422 4.95703 12.2578 4.97266C12.2891 5.03516 12.3086 5.07031 12.3164 5.07812C12.3242 5.07812 12.3281 5.08594 12.3281 5.10156C12.3438 5.1875 12.3555 5.23047 12.3633 5.23047C12.3711 5.22266 12.375 5.22656 12.375 5.24219C12.4219 5.34375 12.4531 5.42188 12.4688 5.47656C12.4844 5.53125 12.4844 5.58594 12.4688 5.64062C12.5 5.69531 12.5117 5.73438 12.5039 5.75781C12.5039 5.78125 12.5039 5.80078 12.5039 5.81641C12.5352 5.91016 12.5547 5.96875 12.5625 5.99219C12.5703 6.00781 12.5742 6.01953 12.5742 6.02734C12.5664 6.05859 12.5664 6.08594 12.5742 6.10938C12.582 6.125 12.5859 6.14453 12.5859 6.16797C12.6094 6.25391 12.6172 6.33203 12.6094 6.40234C12.6016 6.47266 12.6133 6.52734 12.6445 6.56641C12.6289 6.58984 12.6211 6.62891 12.6211 6.68359C12.6289 6.73047 12.6211 6.76172 12.5977 6.77734C12.6133 6.83984 12.6172 6.89062 12.6094 6.92969C12.6094 6.96094 12.6055 6.99219 12.5977 7.02344C12.5977 7.05469 12.5938 7.08203 12.5859 7.10547C12.5859 7.12891 12.5898 7.15234 12.5977 7.17578C12.6055 7.26172 12.6055 7.30859 12.5977 7.31641C12.5977 7.31641 12.5977 7.32422 12.5977 7.33984C12.5898 7.42578 12.5781 7.47656 12.5625 7.49219C12.5781 7.52344 12.582 7.55859 12.5742 7.59766C12.5742 7.63672 12.5703 7.66406 12.5625 7.67969C12.5547 7.70312 12.5508 7.73438 12.5508 7.77344C12.5508 7.8125 12.5469 7.85156 12.5391 7.89062C12.5312 7.91406 12.5234 7.9375 12.5156 7.96094C12.5078 7.98438 12.5 8.00781 12.4922 8.03125C12.4766 8.125 12.457 8.17969 12.4336 8.19531C12.418 8.21094 12.418 8.23828 12.4336 8.27734C12.3945 8.33984 12.3633 8.39453 12.3398 8.44141C12.3242 8.48047 12.3086 8.52734 12.293 8.58203C12.2773 8.62109 12.2617 8.66016 12.2461 8.69922C12.2305 8.73828 12.2188 8.78125 12.2109 8.82812C12.1484 8.90625 12.0898 8.99609 12.0352 9.09766C12.0039 9.14453 11.9727 9.19141 11.9414 9.23828C11.9102 9.28516 11.8867 9.33984 11.8711 9.40234C11.793 9.47266 11.7422 9.52734 11.7188 9.56641C11.6953 9.59766 11.6758 9.62891 11.6602 9.66016C11.5898 9.69141 11.5391 9.73047 11.5078 9.77734C11.4141 9.83203 11.3516 9.87109 11.3203 9.89453C11.2891 9.91016 11.2539 9.92188 11.2148 9.92969C11.168 9.96094 11.1406 9.98438 11.1328 10C11.1328 10.0078 11.1289 10.0195 11.1211 10.0352C11.0195 10.082 10.9492 10.125 10.9102 10.1641C10.8789 10.2109 10.832 10.2422 10.7695 10.2578C10.6758 10.3047 10.6289 10.3281 10.6289 10.3281C10.5664 10.3281 10.5195 10.3281 10.4883 10.3281C10.4648 10.3281 10.4414 10.3359 10.418 10.3516C10.3945 10.3359 10.375 10.3203 10.3594 10.3047C10.3438 10.2891 10.3242 10.2734 10.3008 10.2578C10.2148 10.2266 10.1602 10.2031 10.1367 10.1875C10.1211 10.1719 10.1016 10.1602 10.0781 10.1523C9.98438 10.1289 9.93359 10.1094 9.92578 10.0938C9.91797 10.0781 9.90234 10.0664 9.87891 10.0586C9.78516 10.043 9.73828 10.0391 9.73828 10.0469C9.73828 10.0547 9.73047 10.0547 9.71484 10.0469C9.69141 10.0391 9.66797 10.0312 9.64453 10.0234C9.62891 10.0156 9.60938 10.0078 9.58594 10C9.57031 9.97656 9.55078 9.95703 9.52734 9.94141C9.50391 9.91797 9.47266 9.90625 9.43359 9.90625C9.35547 9.83594 9.30859 9.78516 9.29297 9.75391C9.28516 9.72266 9.26172 9.69922 9.22266 9.68359C9.19922 9.73047 9.19531 9.78125 9.21094 9.83594C9.22656 9.89062 9.23438 9.9375 9.23438 9.97656C9.23438 9.99219 9.23047 10.0117 9.22266 10.0352C9.21484 10.0664 9.21094 10.0898 9.21094 10.1055C9.21094 10.1445 9.21094 10.1836 9.21094 10.2227C9.21094 10.2617 9.20312 10.2891 9.1875 10.3047C9.20312 10.3906 9.21484 10.4375 9.22266 10.4453C9.23047 10.4609 9.23438 10.4766 9.23438 10.4922C9.23438 10.5078 9.23047 10.5273 9.22266 10.5508C9.21484 10.5742 9.21094 10.5977 9.21094 10.6211C9.20312 10.6445 9.20312 10.668 9.21094 10.6914C9.21875 10.7148 9.21875 10.7422 9.21094 10.7734C9.19531 10.8594 9.1875 10.9219 9.1875 10.9609C9.19531 11 9.20703 11.0312 9.22266 11.0547C9.21484 11.0781 9.21094 11.1016 9.21094 11.125C9.21094 11.1484 9.20312 11.168 9.1875 11.1836C9.20312 11.2305 9.21094 11.2773 9.21094 11.3242C9.21094 11.3711 9.20312 11.4141 9.1875 11.4531C9.20312 11.4922 9.21094 11.5195 9.21094 11.5352C9.21094 11.5586 9.21094 11.5938 9.21094 11.6406C9.23438 11.6953 9.24219 11.7383 9.23438 11.7695C9.22656 11.8008 9.23047 11.8203 9.24609 11.8281C9.25391 11.9375 9.25 12.0117 9.23438 12.0508C9.22656 12.0977 9.23047 12.1406 9.24609 12.1797C9.26172 12.2266 9.29297 12.2734 9.33984 12.3203C9.39453 12.375 9.45312 12.4062 9.51562 12.4141C9.53906 12.4219 9.5625 12.4219 9.58594 12.4141C9.61719 12.4141 9.64844 12.4141 9.67969 12.4141C9.71094 12.4141 9.74219 12.418 9.77344 12.4258C9.80469 12.4336 9.83203 12.4258 9.85547 12.4023C9.91797 12.418 9.95312 12.4219 9.96094 12.4141C9.96875 12.4062 9.98047 12.3984 9.99609 12.3906C10.0352 12.4062 10.0742 12.4062 10.1133 12.3906C10.1602 12.375 10.1914 12.3555 10.207 12.332C10.2773 12.3867 10.3125 12.4258 10.3125 12.4492C10.3203 12.4805 10.3398 12.5 10.3711 12.5078C10.3477 12.5469 10.3281 12.5742 10.3125 12.5898C10.3047 12.6055 10.3164 12.6211 10.3477 12.6367C10.293 12.7461 10.2422 12.8008 10.1953 12.8008C10.1484 12.8086 10.1055 12.8203 10.0664 12.8359C10.0273 12.8281 9.97656 12.8164 9.91406 12.8008C9.85156 12.7852 9.80078 12.7969 9.76172 12.8359C9.74609 12.8125 9.72656 12.8086 9.70312 12.8242C9.67969 12.8398 9.65625 12.8438 9.63281 12.8359C9.59375 12.8359 9.55469 12.8242 9.51562 12.8008C9.48438 12.7852 9.44531 12.7773 9.39844 12.7773L9.30469 12.6836C9.21094 12.6836 9.16016 12.6914 9.15234 12.707C9.14453 12.7227 9.12891 12.7305 9.10547 12.7305C9.06641 12.7227 9.02734 12.7148 8.98828 12.707C8.95703 12.6992 8.92188 12.6992 8.88281 12.707C8.79688 12.7305 8.74609 12.75 8.73047 12.7656C8.66797 12.7656 8.61719 12.7578 8.57812 12.7422C8.51562 12.7656 8.46875 12.7773 8.4375 12.7773C8.40625 12.7852 8.39062 12.7812 8.39062 12.7656C8.36719 12.7891 8.33984 12.7969 8.30859 12.7891C8.27734 12.7812 8.25 12.7773 8.22656 12.7773C8.125 12.8086 8.0625 12.8281 8.03906 12.8359C7.98438 12.8359 7.94922 12.8398 7.93359 12.8477C7.91797 12.8555 7.89844 12.8594 7.875 12.8594C7.74219 12.8672 7.62109 12.9062 7.51172 12.9766C7.40234 12.9609 7.33594 12.9414 7.3125 12.918C7.28906 12.9023 7.25781 12.8867 7.21875 12.8711C7.22656 12.7773 7.23828 12.7227 7.25391 12.707C7.27734 12.6992 7.29297 12.6719 7.30078 12.625C7.32422 12.6172 7.34766 12.6094 7.37109 12.6016C7.39453 12.5938 7.42188 12.5977 7.45312 12.6133C7.48438 12.5977 7.51172 12.5859 7.53516 12.5781C7.56641 12.5781 7.59766 12.5703 7.62891 12.5547C7.67578 12.5156 7.70703 12.4961 7.72266 12.4961C7.73828 12.5039 7.75391 12.5039 7.76953 12.4961C7.83203 12.457 7.875 12.4102 7.89844 12.3555C7.92969 12.3008 7.97266 12.2539 8.02734 12.2148C8.01172 12.1758 8.01562 12.1328 8.03906 12.0859C8.07031 12.0391 8.07812 11.9961 8.0625 11.957C8.08594 11.9414 8.09375 11.9102 8.08594 11.8633C8.08594 11.8242 8.09766 11.7969 8.12109 11.7812C8.11328 11.7188 8.10547 11.6758 8.09766 11.6523C8.08984 11.6367 8.08984 11.6211 8.09766 11.6055C8.10547 11.5664 8.11328 11.5273 8.12109 11.4883C8.13672 11.4492 8.13281 11.4102 8.10938 11.3711C8.13281 11.3008 8.14062 11.2539 8.13281 11.2305C8.125 11.207 8.13281 11.1992 8.15625 11.207C8.125 11.1133 8.10938 11.0508 8.10938 11.0195C8.11719 10.9883 8.12109 10.9648 8.12109 10.9492C8.12109 10.9023 8.11719 10.8516 8.10938 10.7969C8.10156 10.7422 8.11328 10.6914 8.14453 10.6445C8.13672 10.5352 8.12891 10.4375 8.12109 10.3516C8.11328 10.2734 8.11719 10.1797 8.13281 10.0703C8.14844 9.97656 8.14844 9.90234 8.13281 9.84766C8.125 9.79297 8.13672 9.74219 8.16797 9.69531C8.15234 9.5625 8.14062 9.45703 8.13281 9.37891C8.125 9.29297 8.125 9.20703 8.13281 9.12109C8.13281 9.08203 8.13281 9.04297 8.13281 9.00391C8.14062 8.95703 8.14453 8.91406 8.14453 8.875C8.12891 8.8125 8.12109 8.77734 8.12109 8.76953C8.12891 8.76172 8.13281 8.75 8.13281 8.73438C8.14062 8.66406 8.14062 8.61719 8.13281 8.59375C8.125 8.57031 8.13672 8.55078 8.16797 8.53516C8.15234 8.44141 8.14062 8.37891 8.13281 8.34766C8.125 8.31641 8.125 8.28125 8.13281 8.24219C8.125 8.17188 8.125 8.12891 8.13281 8.11328C8.14844 8.08984 8.14844 8.07031 8.13281 8.05469C8.14062 7.92188 8.14453 7.82812 8.14453 7.77344C8.15234 7.71094 8.14844 7.66016 8.13281 7.62109C8.14844 7.55859 8.15234 7.52344 8.14453 7.51562C8.13672 7.5 8.12891 7.48438 8.12109 7.46875C8.13672 7.39844 8.14062 7.35547 8.13281 7.33984C8.125 7.32422 8.12109 7.30859 8.12109 7.29297C8.12891 7.25391 8.13281 7.21094 8.13281 7.16406C8.13281 7.11719 8.13281 7.07422 8.13281 7.03516C8.14844 6.97266 8.15234 6.92969 8.14453 6.90625C8.13672 6.88281 8.13281 6.85938 8.13281 6.83594C8.13281 6.76562 8.13672 6.69922 8.14453 6.63672C8.16016 6.57422 8.16406 6.51172 8.15625 6.44922C8.14062 6.39453 8.13672 6.35938 8.14453 6.34375C8.16016 6.32812 8.15625 6.31641 8.13281 6.30859C8.13281 6.23828 8.13281 6.17188 8.13281 6.10938C8.14062 6.03906 8.13281 5.98438 8.10938 5.94531C8.125 5.86719 8.13281 5.82422 8.13281 5.81641C8.13281 5.80078 8.125 5.78906 8.10938 5.78125C8.13281 5.75781 8.13672 5.73438 8.12109 5.71094C8.11328 5.6875 8.10938 5.66797 8.10938 5.65234L8.08594 5.51172C8.08594 5.44922 8.07812 5.39844 8.0625 5.35938C8.05469 5.32031 8.05469 5.26953 8.0625 5.20703C8.04688 5.11328 8.03125 5.05078 8.01562 5.01953C8 4.98828 8 4.96484 8.01562 4.94922C7.98438 4.83984 7.95312 4.76953 7.92188 4.73828C7.89844 4.69922 7.88281 4.64844 7.875 4.58594C7.8125 4.54688 7.76953 4.52734 7.74609 4.52734C7.73047 4.51953 7.70312 4.50781 7.66406 4.49219C7.58594 4.46875 7.53125 4.46484 7.5 4.48047C7.46875 4.48828 7.43359 4.49219 7.39453 4.49219C7.33984 4.48438 7.30469 4.48438 7.28906 4.49219C7.28125 4.49219 7.26953 4.49219 7.25391 4.49219C7.19922 4.49219 7.16406 4.49609 7.14844 4.50391C7.125 4.51172 7.10547 4.51562 7.08984 4.51562C7.00391 4.5 6.95312 4.50781 6.9375 4.53906C6.82812 4.53906 6.76562 4.5 6.75 4.42188C6.73438 4.33594 6.73828 4.25 6.76172 4.16406C6.80078 4.14844 6.83203 4.13281 6.85547 4.11719C6.87891 4.10156 6.91016 4.08594 6.94922 4.07031C7.05078 4.10938 7.11328 4.14844 7.13672 4.1875C7.16016 4.17188 7.19141 4.16406 7.23047 4.16406C7.27734 4.16406 7.32031 4.16406 7.35938 4.16406C7.44531 4.17969 7.49609 4.18359 7.51172 4.17578C7.52734 4.16797 7.54297 4.16406 7.55859 4.16406C7.59766 4.17188 7.64062 4.17578 7.6875 4.17578C7.74219 4.16797 7.78906 4.15625 7.82812 4.14062C7.91406 4.11719 7.96094 4.10938 7.96875 4.11719C7.98438 4.11719 8 4.11719 8.01562 4.11719C8.07812 4.10156 8.13672 4.08203 8.19141 4.05859C8.25391 4.03516 8.31641 4.03125 8.37891 4.04688C8.41016 4.03906 8.42969 4.02734 8.4375 4.01172C8.45312 3.98828 8.47266 3.97266 8.49609 3.96484C8.58984 3.93359 8.66016 3.89844 8.70703 3.85938C8.76172 3.8125 8.83203 3.78125 8.91797 3.76562C8.95703 3.73438 8.98438 3.70312 9 3.67188C9.02344 3.63281 9.04688 3.59375 9.07031 3.55469ZM7.57031 4.17578C7.54688 4.19922 7.53125 4.22266 7.52344 4.24609C7.51562 4.26172 7.5 4.27734 7.47656 4.29297C7.49219 4.26172 7.50781 4.23828 7.52344 4.22266C7.53906 4.20703 7.55469 4.19141 7.57031 4.17578ZM10.2305 4.52734C10.1211 4.56641 10.0391 4.59375 9.98438 4.60938C9.9375 4.61719 9.89844 4.64062 9.86719 4.67969C9.84375 4.6875 9.82031 4.69531 9.79688 4.70312C9.78125 4.71094 9.76172 4.71875 9.73828 4.72656C9.73828 4.78125 9.72266 4.81641 9.69141 4.83203C9.66016 4.83984 9.64062 4.86328 9.63281 4.90234C9.57812 4.97266 9.53906 5.01953 9.51562 5.04297C9.49219 5.05859 9.48047 5.08984 9.48047 5.13672C9.40234 5.20703 9.35938 5.25391 9.35156 5.27734C9.34375 5.29297 9.32812 5.30859 9.30469 5.32422C9.32031 5.36328 9.31641 5.40234 9.29297 5.44141C9.26953 5.48047 9.24609 5.50781 9.22266 5.52344C9.23828 5.5625 9.23438 5.59375 9.21094 5.61719C9.19531 5.64062 9.1875 5.67188 9.1875 5.71094C9.19531 5.80469 9.19922 5.87109 9.19922 5.91016C9.19922 5.94922 9.21094 5.98438 9.23438 6.01562C9.21875 6.13281 9.21484 6.21484 9.22266 6.26172C9.23828 6.30859 9.24609 6.35156 9.24609 6.39062L9.22266 6.51953C9.23047 6.56641 9.23047 6.60156 9.22266 6.625C9.21484 6.64844 9.21094 6.66797 9.21094 6.68359C9.22656 6.82422 9.23047 6.92188 9.22266 6.97656C9.21484 7.02344 9.20703 7.07812 9.19922 7.14062C9.19141 7.24219 9.1875 7.34375 9.1875 7.44531C9.19531 7.54688 9.19531 7.64062 9.1875 7.72656C9.21875 7.77344 9.22656 7.82422 9.21094 7.87891C9.21094 7.93359 9.21094 7.97656 9.21094 8.00781C9.21875 8.03906 9.22266 8.06641 9.22266 8.08984C9.20703 8.15234 9.19922 8.19531 9.19922 8.21875C9.19922 8.26562 9.20703 8.30859 9.22266 8.34766C9.23828 8.37891 9.24609 8.41406 9.24609 8.45312C9.24609 8.48438 9.24219 8.51172 9.23438 8.53516C9.23438 8.55859 9.23047 8.58594 9.22266 8.61719C9.22266 8.74219 9.21484 8.83203 9.19922 8.88672C9.19141 8.93359 9.1875 8.97656 9.1875 9.01562C9.20312 9.13281 9.21875 9.20703 9.23438 9.23828C9.25781 9.26953 9.27344 9.30859 9.28125 9.35547C9.3125 9.37109 9.33594 9.38672 9.35156 9.40234C9.36719 9.41016 9.39453 9.42188 9.43359 9.4375C9.48047 9.48438 9.50391 9.51562 9.50391 9.53125C9.50391 9.53906 9.50781 9.54688 9.51562 9.55469C9.63281 9.60938 9.70703 9.65625 9.73828 9.69531C9.77734 9.73438 9.83203 9.76172 9.90234 9.77734C9.92578 9.80859 9.95703 9.83203 9.99609 9.84766C10.0352 9.85547 10.0742 9.86719 10.1133 9.88281C10.1758 9.89844 10.2383 9.91406 10.3008 9.92969C10.3711 9.94531 10.4414 9.94922 10.5117 9.94141C10.5664 9.90234 10.6016 9.88281 10.6172 9.88281C10.6406 9.875 10.6602 9.86328 10.6758 9.84766C10.7461 9.84766 10.8086 9.82031 10.8633 9.76562C10.8711 9.75 10.8789 9.73047 10.8867 9.70703C10.8945 9.67578 10.9062 9.64844 10.9219 9.625C10.9844 9.53125 11.0195 9.47656 11.0273 9.46094C11.0352 9.4375 11.043 9.41406 11.0508 9.39062C11.0898 9.32031 11.1094 9.27344 11.1094 9.25C11.1094 9.22656 11.1133 9.19922 11.1211 9.16797C11.1445 9.08984 11.1602 9.04688 11.168 9.03906C11.1758 9.03125 11.1797 9.01953 11.1797 9.00391C11.1875 8.98047 11.1875 8.95703 11.1797 8.93359C11.1797 8.91016 11.1836 8.88672 11.1914 8.86328C11.2227 8.80078 11.2344 8.75781 11.2266 8.73438C11.2266 8.70312 11.2305 8.67969 11.2383 8.66406C11.2773 8.64062 11.293 8.61719 11.2852 8.59375C11.2773 8.57031 11.2734 8.53906 11.2734 8.5C11.2812 8.48438 11.2891 8.46484 11.2969 8.44141C11.3047 8.41016 11.3086 8.38281 11.3086 8.35938C11.3164 8.33594 11.3164 8.3125 11.3086 8.28906C11.3008 8.26562 11.3008 8.23828 11.3086 8.20703C11.3398 8.12891 11.3477 8.08984 11.332 8.08984C11.3164 8.08203 11.3125 8.07031 11.3203 8.05469C11.3438 7.96875 11.3477 7.92969 11.332 7.9375C11.3242 7.9375 11.3242 7.92969 11.332 7.91406C11.3477 7.875 11.3516 7.83203 11.3438 7.78516C11.3359 7.73828 11.332 7.69531 11.332 7.65625C11.3398 7.60156 11.3398 7.57031 11.332 7.5625C11.332 7.54688 11.332 7.53125 11.332 7.51562C11.3477 7.42969 11.3516 7.38281 11.3438 7.375C11.3438 7.35938 11.3438 7.34375 11.3438 7.32812C11.3594 7.25 11.3672 7.20703 11.3672 7.19922C11.375 7.18359 11.3828 7.16797 11.3906 7.15234C11.3906 7.08203 11.3867 7.03906 11.3789 7.02344C11.3789 7 11.3789 6.98047 11.3789 6.96484C11.3945 6.88672 11.3984 6.83984 11.3906 6.82422C11.3828 6.80078 11.375 6.78125 11.3672 6.76562C11.3672 6.64844 11.3633 6.57422 11.3555 6.54297C11.3711 6.48828 11.375 6.45312 11.3672 6.4375C11.3594 6.42188 11.3555 6.40625 11.3555 6.39062C11.3477 6.33594 11.3477 6.28516 11.3555 6.23828C11.3633 6.18359 11.3633 6.12891 11.3555 6.07422C11.3555 6.03516 11.3477 5.99609 11.332 5.95703C11.3242 5.91797 11.3242 5.87891 11.332 5.83984C11.3242 5.82422 11.3164 5.80859 11.3086 5.79297C11.3008 5.76953 11.2891 5.74609 11.2734 5.72266C11.2891 5.63672 11.2891 5.58203 11.2734 5.55859C11.2578 5.53516 11.2461 5.51172 11.2383 5.48828C11.2305 5.44922 11.2266 5.41406 11.2266 5.38281C11.2344 5.35156 11.2344 5.31641 11.2266 5.27734C11.2031 5.21484 11.1914 5.17969 11.1914 5.17188C11.1992 5.15625 11.1992 5.14062 11.1914 5.125C11.1367 5.03906 11.1094 4.98438 11.1094 4.96094C11.1172 4.92969 11.1133 4.90625 11.0977 4.89062C11.043 4.83594 11.0117 4.80469 11.0039 4.79688C11.0039 4.78906 10.9961 4.77734 10.9805 4.76172C10.957 4.71484 10.9297 4.6875 10.8984 4.67969C10.8672 4.67188 10.8359 4.66016 10.8047 4.64453C10.75 4.57422 10.7109 4.54297 10.6875 4.55078C10.6641 4.55859 10.6562 4.55078 10.6641 4.52734C10.6406 4.52734 10.6172 4.53125 10.5938 4.53906C10.5703 4.54688 10.5508 4.53906 10.5352 4.51562C10.4961 4.53125 10.4492 4.53516 10.3945 4.52734C10.3398 4.51953 10.293 4.51172 10.2539 4.50391L10.2305 4.52734ZM17.6602 4.87891L17.7188 4.99609C17.7656 5.07422 17.793 5.12891 17.8008 5.16016C17.8086 5.18359 17.8164 5.20703 17.8242 5.23047C17.8398 5.26172 17.8516 5.28906 17.8594 5.3125C17.875 5.33594 17.8867 5.35938 17.8945 5.38281C17.9023 5.42188 17.9023 5.46484 17.8945 5.51172C17.8867 5.55859 17.9023 5.59375 17.9414 5.61719C17.9492 5.65625 17.9492 5.68359 17.9414 5.69922C17.9414 5.71484 17.9492 5.74219 17.9648 5.78125C17.9648 5.86719 17.9688 5.91406 17.9766 5.92188C17.9844 5.92969 17.9883 5.9375 17.9883 5.94531C17.9805 5.99219 17.9805 6.03125 17.9883 6.0625C17.9961 6.09375 18 6.12109 18 6.14453C18 6.16016 17.9961 6.17969 17.9883 6.20312C17.9883 6.21875 17.9883 6.24219 17.9883 6.27344C17.9883 6.3125 17.9922 6.34375 18 6.36719C18.0078 6.39062 18.0195 6.41406 18.0352 6.4375C18.0117 6.52344 18.0039 6.58203 18.0117 6.61328C18.0273 6.64453 18.0352 6.67969 18.0352 6.71875C18.0273 6.8125 18.0234 6.875 18.0234 6.90625C18.0312 6.92969 18.0273 6.94922 18.0117 6.96484C18.0195 7.03516 18.0195 7.07422 18.0117 7.08203C18.0039 7.08984 18 7.10156 18 7.11719C18.0078 7.30469 17.9922 7.44141 17.9531 7.52734C17.9766 7.59766 17.9805 7.64453 17.9648 7.66797C17.957 7.68359 17.9531 7.69922 17.9531 7.71484C17.9531 7.76172 17.957 7.80469 17.9648 7.84375C17.9727 7.88281 17.9609 7.91797 17.9297 7.94922C17.9453 8.01172 17.9492 8.04688 17.9414 8.05469C17.9414 8.0625 17.9414 8.07422 17.9414 8.08984C17.9492 8.15234 17.9453 8.19922 17.9297 8.23047C17.9219 8.26172 17.918 8.28906 17.918 8.3125C17.918 8.34375 17.918 8.38672 17.918 8.44141C17.9258 8.49609 17.9219 8.54688 17.9062 8.59375C17.9062 8.65625 17.9102 8.71484 17.918 8.76953C17.9336 8.81641 17.9297 8.85547 17.9062 8.88672C17.9297 8.91797 17.9336 8.95312 17.918 8.99219C17.9023 9.03125 17.9141 9.06641 17.9531 9.09766C17.9531 9.16797 17.9453 9.25391 17.9297 9.35547C17.9141 9.44922 17.9141 9.53516 17.9297 9.61328C17.9453 9.65234 17.9609 9.68359 17.9766 9.70703C17.9922 9.72266 18.0078 9.74609 18.0234 9.77734C18.0547 9.78516 18.0938 9.79297 18.1406 9.80078C18.1953 9.80078 18.2461 9.79688 18.293 9.78906C18.3164 9.78906 18.3477 9.78906 18.3867 9.78906C18.4258 9.78125 18.457 9.77344 18.4805 9.76562C18.4961 9.75 18.5117 9.73828 18.5273 9.73047C18.5508 9.71484 18.5742 9.70703 18.5977 9.70703C18.6602 9.62891 18.6992 9.57812 18.7148 9.55469C18.7383 9.53125 18.7617 9.50781 18.7852 9.48438C18.793 9.38281 18.8086 9.33203 18.832 9.33203C18.8242 9.24609 18.8477 9.19141 18.9023 9.16797C19.0039 9.16016 19.0547 9.17188 19.0547 9.20312C19.1094 9.28125 19.1523 9.32031 19.1836 9.32031C19.168 9.33594 19.1523 9.35547 19.1367 9.37891C19.1211 9.40234 19.1133 9.43359 19.1133 9.47266C19.043 9.56641 18.9961 9.63672 18.9727 9.68359C18.9492 9.72266 18.9141 9.75781 18.8672 9.78906C18.8516 9.85156 18.832 9.89844 18.8086 9.92969C18.7852 9.96094 18.7578 9.99609 18.7266 10.0352C18.6484 10.0508 18.5742 10.0703 18.5039 10.0938C18.4414 10.1172 18.3594 10.125 18.2578 10.1172C18.1719 10.125 18.0859 10.1133 18 10.082C17.9219 10.0508 17.8477 10.0234 17.7773 10C17.7383 9.98438 17.7109 9.96484 17.6953 9.94141C17.6875 9.91016 17.6641 9.89453 17.625 9.89453C17.5859 9.82422 17.5586 9.78516 17.543 9.77734C17.5273 9.76172 17.5117 9.74609 17.4961 9.73047C17.4883 9.67578 17.457 9.64062 17.4023 9.625C17.3789 9.58594 17.3555 9.54688 17.332 9.50781C17.3164 9.46094 17.293 9.41797 17.2617 9.37891C17.2539 9.33203 17.2422 9.28906 17.2266 9.25C17.2109 9.21094 17.2031 9.16406 17.2031 9.10938C17.1797 9.07031 17.1562 9.03125 17.1328 8.99219C17.1172 8.94531 17.1016 8.90234 17.0859 8.86328C17.0625 8.91016 17.043 8.9375 17.0273 8.94531C17.0195 8.95312 17.0078 8.96484 16.9922 8.98047C16.9453 9.08203 16.918 9.13672 16.9102 9.14453C16.8555 9.20703 16.8281 9.24219 16.8281 9.25C16.8281 9.25781 16.8242 9.26953 16.8164 9.28516C16.7852 9.33984 16.75 9.375 16.7109 9.39062C16.7109 9.42969 16.6992 9.45703 16.6758 9.47266C16.6602 9.48828 16.6484 9.51172 16.6406 9.54297C16.5938 9.55859 16.5547 9.58984 16.5234 9.63672C16.5 9.67578 16.4766 9.72266 16.4531 9.77734C16.4297 9.77734 16.4102 9.78516 16.3945 9.80078C16.3867 9.80859 16.3633 9.8125 16.3242 9.8125C16.3086 9.83594 16.2852 9.85938 16.2539 9.88281C16.2305 9.89844 16.1992 9.89844 16.1602 9.88281C16.1289 9.9375 16.0703 9.96484 15.9844 9.96484C15.8672 9.98828 15.7852 10.0117 15.7383 10.0352C15.6992 10.0664 15.6562 10.0703 15.6094 10.0469C15.5703 10.0781 15.5234 10.0977 15.4688 10.1055C15.4141 10.1133 15.3672 10.1289 15.3281 10.1523C15.2578 10.1211 15.2188 10.1094 15.2109 10.1172C15.2031 10.1328 15.1914 10.1445 15.1758 10.1523C15.1367 10.1367 15.1016 10.1328 15.0703 10.1406C15.0391 10.1484 15.0039 10.1367 14.9648 10.1055C14.9258 10.1055 14.8867 10.1016 14.8477 10.0938C14.8164 10.0938 14.7812 10.0898 14.7422 10.082C14.6562 10.0586 14.5938 10.0312 14.5547 10C14.5156 9.97656 14.4727 9.97266 14.4258 9.98828C14.3633 9.96484 14.3125 9.9375 14.2734 9.90625C14.2344 9.875 14.1836 9.85156 14.1211 9.83594C14.0586 9.76562 14.0195 9.72266 14.0039 9.70703C13.9961 9.69141 13.9844 9.68359 13.9688 9.68359C13.9141 9.58203 13.8867 9.53125 13.8867 9.53125C13.8164 9.47656 13.7812 9.44531 13.7812 9.4375C13.7891 9.42969 13.7891 9.42188 13.7812 9.41406L13.6523 9.22656C13.6367 9.20312 13.6172 9.18359 13.5938 9.16797C13.5781 9.15234 13.5625 9.13672 13.5469 9.12109C13.5312 9.04297 13.5195 8.98438 13.5117 8.94531C13.5117 8.89844 13.5156 8.85547 13.5234 8.81641C13.5156 8.72266 13.5078 8.66016 13.5 8.62891C13.4922 8.59766 13.4883 8.5625 13.4883 8.52344C13.4961 8.48438 13.5039 8.44531 13.5117 8.40625C13.5273 8.35938 13.5391 8.31641 13.5469 8.27734C13.5547 8.23047 13.5547 8.19141 13.5469 8.16016C13.5469 8.12891 13.5586 8.10156 13.582 8.07812C13.5742 8.01562 13.582 7.97266 13.6055 7.94922C13.6367 7.92578 13.6445 7.89453 13.6289 7.85547C13.6758 7.83984 13.707 7.80078 13.7227 7.73828C13.7383 7.66797 13.7734 7.625 13.8281 7.60938C13.8359 7.55469 13.8555 7.51562 13.8867 7.49219C13.9258 7.46094 13.9531 7.41797 13.9688 7.36328C14.0078 7.34766 14.0352 7.32812 14.0508 7.30469C14.0742 7.27344 14.1094 7.25781 14.1562 7.25781C14.2031 7.1875 14.2305 7.15234 14.2383 7.15234C14.2539 7.14453 14.2617 7.13281 14.2617 7.11719C14.3477 7.10156 14.3984 7.08594 14.4141 7.07031C14.4375 7.05469 14.457 7.04297 14.4727 7.03516C14.5508 7.01172 14.5938 6.99609 14.6016 6.98828C14.6094 6.98047 14.6211 6.97656 14.6367 6.97656C14.7383 6.95312 14.8164 6.93359 14.8711 6.91797C14.9258 6.90234 14.9727 6.89062 15.0117 6.88281C15.0742 6.90625 15.1094 6.91016 15.1172 6.89453C15.125 6.87891 15.1367 6.86719 15.1523 6.85938C15.1914 6.84375 15.2227 6.83594 15.2461 6.83594C15.2695 6.83594 15.3086 6.83203 15.3633 6.82422C15.4414 6.80859 15.4883 6.80469 15.5039 6.8125C15.5195 6.82031 15.5352 6.82031 15.5508 6.8125C15.5977 6.80469 15.6406 6.78906 15.6797 6.76562C15.7266 6.74219 15.7695 6.72656 15.8086 6.71875C15.832 6.71094 15.8555 6.71094 15.8789 6.71875C15.9102 6.71875 15.9336 6.71875 15.9492 6.71875C16.0352 6.71094 16.0898 6.70703 16.1133 6.70703C16.1445 6.69922 16.168 6.69531 16.1836 6.69531C16.2227 6.6875 16.2578 6.67578 16.2891 6.66016C16.3203 6.64453 16.3555 6.63281 16.3945 6.625C16.4727 6.63281 16.5117 6.63672 16.5117 6.63672C16.5195 6.62891 16.5312 6.62109 16.5469 6.61328C16.6172 6.59766 16.6836 6.60938 16.7461 6.64844C16.7695 6.63281 16.793 6.625 16.8164 6.625C16.8398 6.625 16.8633 6.61719 16.8867 6.60156C16.8633 6.46875 16.8594 6.37891 16.875 6.33203C16.8906 6.27734 16.8984 6.22266 16.8984 6.16797C16.8984 6.15234 16.8945 6.13281 16.8867 6.10938C16.8867 6.07812 16.8867 6.05469 16.8867 6.03906C16.8555 5.92969 16.8398 5.87109 16.8398 5.86328C16.832 5.83984 16.8281 5.81641 16.8281 5.79297C16.8281 5.76953 16.8359 5.73828 16.8516 5.69922C16.8281 5.62109 16.8203 5.57031 16.8281 5.54688C16.8359 5.51562 16.8398 5.48828 16.8398 5.46484C16.8164 5.38672 16.8047 5.33984 16.8047 5.32422C16.8125 5.30078 16.8164 5.28125 16.8164 5.26562C16.8086 5.22656 16.8008 5.19531 16.793 5.17188C16.7852 5.14062 16.7891 5.10938 16.8047 5.07812C16.7891 5.04688 16.7773 5.01562 16.7695 4.98438C16.7617 4.95312 16.75 4.92188 16.7344 4.89062C16.6953 4.78125 16.6641 4.72266 16.6406 4.71484C16.6172 4.69922 16.6016 4.67188 16.5938 4.63281C16.5547 4.61719 16.5273 4.60156 16.5117 4.58594C16.4961 4.5625 16.4805 4.54297 16.4648 4.52734C16.3711 4.47266 16.3086 4.44922 16.2773 4.45703C16.2461 4.45703 16.2227 4.44531 16.207 4.42188C16.1211 4.39844 16.0625 4.38281 16.0312 4.375C16.0078 4.36719 15.9922 4.35156 15.9844 4.32812C15.8828 4.30469 15.7773 4.30078 15.668 4.31641C15.6367 4.32422 15.6094 4.33594 15.5859 4.35156C15.5703 4.36719 15.5469 4.37891 15.5156 4.38672C15.4766 4.39453 15.4336 4.39844 15.3867 4.39844C15.3477 4.39062 15.3086 4.39453 15.2695 4.41016C15.2383 4.41797 15.2109 4.43359 15.1875 4.45703C15.1641 4.47266 15.1328 4.48047 15.0938 4.48047C15.0625 4.50391 15.0312 4.52734 15 4.55078C14.9766 4.56641 14.9414 4.57812 14.8945 4.58594C14.7305 4.625 14.6289 4.66016 14.5898 4.69141C14.5352 4.74609 14.4844 4.78125 14.4375 4.79688C14.3984 4.82812 14.3672 4.85547 14.3438 4.87891C14.3281 4.89453 14.3125 4.91406 14.2969 4.9375C14.25 5.03125 14.2148 5.10938 14.1914 5.17188C14.168 5.23438 14.1758 5.29688 14.2148 5.35938C14.2383 5.47656 14.2578 5.5625 14.2734 5.61719C14.2891 5.67188 14.3125 5.72266 14.3438 5.76953C14.3516 5.79297 14.3711 5.80859 14.4023 5.81641C14.4336 5.81641 14.4492 5.83203 14.4492 5.86328C14.4961 5.87891 14.5391 5.89844 14.5781 5.92188C14.625 5.94531 14.6758 5.95703 14.7305 5.95703C14.7617 5.95703 14.7891 5.94922 14.8125 5.93359C14.8359 5.91797 14.8672 5.91797 14.9062 5.93359C14.9609 5.88672 14.9922 5.86328 15 5.86328C15.0078 5.86328 15.0156 5.85938 15.0234 5.85156C15.0391 5.83594 15.0547 5.81641 15.0703 5.79297C15.0938 5.76953 15.1055 5.74609 15.1055 5.72266C15.1055 5.64453 15.0469 5.59375 14.9297 5.57031C14.9141 5.60938 14.9023 5.64844 14.8945 5.6875C14.8867 5.72656 14.8867 5.76953 14.8945 5.81641C14.8398 5.83203 14.7891 5.83594 14.7422 5.82812C14.6953 5.8125 14.6523 5.79688 14.6133 5.78125C14.5977 5.75 14.5898 5.70703 14.5898 5.65234C14.5977 5.58984 14.6094 5.53906 14.625 5.5C14.6719 5.46094 14.6953 5.43359 14.6953 5.41797C14.7031 5.40234 14.7109 5.38672 14.7188 5.37109C14.7734 5.34766 14.8203 5.32812 14.8594 5.3125C14.9062 5.29688 14.9375 5.28906 14.9531 5.28906C14.9922 5.28906 15.0234 5.30078 15.0469 5.32422C15.0703 5.33984 15.1016 5.33984 15.1406 5.32422C15.1719 5.35547 15.1992 5.38672 15.2227 5.41797C15.2461 5.44141 15.2734 5.46484 15.3047 5.48828C15.3203 5.56641 15.3359 5.65234 15.3516 5.74609C15.375 5.83203 15.3633 5.90625 15.3164 5.96875C15.3008 5.99219 15.2773 6.00781 15.2461 6.01562C15.2227 6.02344 15.2031 6.04297 15.1875 6.07422C15.1484 6.06641 15.1211 6.07031 15.1055 6.08594C15.0898 6.10156 15.0664 6.11328 15.0352 6.12109C15.0195 6.13672 14.9961 6.14844 14.9648 6.15625C14.9414 6.15625 14.9219 6.16406 14.9062 6.17969C14.7734 6.20312 14.6562 6.20312 14.5547 6.17969C14.4766 6.16406 14.4062 6.13672 14.3438 6.09766C14.2812 6.05078 14.2188 6.01953 14.1562 6.00391C14.1562 5.97266 14.1445 5.94922 14.1211 5.93359C14.0977 5.91797 14.0781 5.89844 14.0625 5.875C14.0391 5.77344 14.0195 5.70703 14.0039 5.67578C13.9883 5.64453 13.9727 5.61719 13.957 5.59375C13.957 5.53906 13.9492 5.48828 13.9336 5.44141C13.9023 5.38672 13.8945 5.33984 13.9102 5.30078C13.9102 5.24609 13.918 5.20312 13.9336 5.17188C13.9414 5.05469 13.9609 4.97656 13.9922 4.9375C14.0078 4.86719 14.0234 4.82812 14.0391 4.82031C14.0547 4.8125 14.0547 4.80078 14.0391 4.78516C14.0938 4.73828 14.1406 4.69141 14.1797 4.64453C14.2188 4.59766 14.2617 4.55469 14.3086 4.51562C14.418 4.48438 14.4766 4.45312 14.4844 4.42188C14.5234 4.42188 14.5547 4.41406 14.5781 4.39844C14.6094 4.375 14.6445 4.36328 14.6836 4.36328C14.6992 4.33203 14.7305 4.31641 14.7773 4.31641C14.832 4.30859 14.8672 4.28125 14.8828 4.23438C14.9062 4.27344 14.9414 4.27734 14.9883 4.24609C15.043 4.21484 15.0898 4.21094 15.1289 4.23438C15.1602 4.22656 15.1797 4.21484 15.1875 4.19922C15.2031 4.17578 15.2227 4.15625 15.2461 4.14062C15.2773 4.14062 15.3242 4.12891 15.3867 4.10547C15.4727 4.08203 15.5156 4.07422 15.5156 4.08203C15.5234 4.08203 15.5352 4.08203 15.5508 4.08203C15.6523 4.06641 15.7188 4.05859 15.75 4.05859C15.7891 4.05078 15.8164 4.04688 15.832 4.04688C15.8867 4.05469 15.9258 4.05078 15.9492 4.03516C15.9805 4.01953 16.0156 4.03125 16.0547 4.07031C16.125 4.07812 16.168 4.08203 16.1836 4.08203C16.207 4.07422 16.2266 4.07422 16.2422 4.08203C16.3906 4.10547 16.4961 4.13672 16.5586 4.17578C16.6289 4.21484 16.6953 4.23438 16.7578 4.23438C16.8672 4.29688 16.9805 4.33203 17.0977 4.33984C17.168 4.38672 17.2031 4.41797 17.2031 4.43359C17.2031 4.44141 17.2109 4.45312 17.2266 4.46875C17.2969 4.52344 17.332 4.55078 17.332 4.55078C17.3398 4.55078 17.3477 4.55469 17.3555 4.5625C17.4414 4.61719 17.4883 4.65234 17.4961 4.66797C17.5039 4.67578 17.5156 4.6875 17.5312 4.70312C17.5859 4.78906 17.6211 4.83594 17.6367 4.84375C17.6523 4.84375 17.6602 4.85547 17.6602 4.87891ZM16.207 6.92969C16.1211 6.94531 16.0664 6.96484 16.043 6.98828C16.0195 7.00391 15.9922 7.01172 15.9609 7.01172C15.9297 7.00391 15.9023 7.00391 15.8789 7.01172C15.8555 7.01172 15.8359 7.01172 15.8203 7.01172C15.7734 7.07422 15.7344 7.10547 15.7031 7.10547C15.6719 7.10547 15.6367 7.10938 15.5977 7.11719C15.5273 7.14844 15.4805 7.16406 15.457 7.16406C15.4414 7.16406 15.4258 7.16797 15.4102 7.17578C15.3789 7.19141 15.3477 7.20703 15.3164 7.22266C15.293 7.23047 15.2695 7.24609 15.2461 7.26953C15.1914 7.34766 15.1523 7.39844 15.1289 7.42188C15.1133 7.44531 15.0898 7.46484 15.0586 7.48047C15.0586 7.51172 15.0508 7.54297 15.0352 7.57422C15.0273 7.59766 15.0195 7.62109 15.0117 7.64453C14.9727 7.68359 14.9531 7.72266 14.9531 7.76172C14.9531 7.79297 14.9492 7.81641 14.9414 7.83203C14.9102 7.87109 14.8945 7.89844 14.8945 7.91406C14.8945 7.92969 14.8906 7.94141 14.8828 7.94922C14.8438 7.99609 14.8203 8.02734 14.8125 8.04297C14.8125 8.05078 14.8125 8.0625 14.8125 8.07812C14.75 8.17188 14.7227 8.22266 14.7305 8.23047C14.7461 8.23828 14.7539 8.25781 14.7539 8.28906C14.7383 8.32031 14.7305 8.35156 14.7305 8.38281C14.7305 8.40625 14.7305 8.42969 14.7305 8.45312C14.7227 8.53125 14.7148 8.57422 14.707 8.58203C14.6992 8.58984 14.6953 8.60547 14.6953 8.62891C14.7109 8.64453 14.7148 8.66797 14.707 8.69922C14.707 8.73047 14.7109 8.76562 14.7188 8.80469C14.7266 8.82812 14.7344 8.85156 14.7422 8.875C14.7578 8.89844 14.7539 8.92188 14.7305 8.94531C14.7773 9.04688 14.8047 9.10547 14.8125 9.12109C14.8672 9.19922 14.8945 9.25 14.8945 9.27344C14.8945 9.29688 14.8984 9.31641 14.9062 9.33203C14.9297 9.35547 14.9531 9.37891 14.9766 9.40234C15.0078 9.41797 15.0312 9.44531 15.0469 9.48438C15.1172 9.51562 15.1523 9.53906 15.1523 9.55469C15.1523 9.57031 15.1562 9.58594 15.1641 9.60156C15.2031 9.60156 15.2422 9.60938 15.2812 9.625C15.3203 9.64062 15.3633 9.64844 15.4102 9.64844C15.4883 9.64844 15.5391 9.65625 15.5625 9.67188C15.5859 9.67969 15.6133 9.67578 15.6445 9.66016C15.6836 9.64453 15.7344 9.64062 15.7969 9.64844C15.8594 9.64844 15.918 9.64062 15.9727 9.625C16.0508 9.58594 16.1016 9.56641 16.125 9.56641C16.1484 9.56641 16.168 9.5625 16.1836 9.55469C16.2461 9.52344 16.2773 9.5 16.2773 9.48438C16.2852 9.46875 16.3047 9.46484 16.3359 9.47266C16.3906 9.41797 16.4258 9.37109 16.4414 9.33203C16.5039 9.30859 16.543 9.26562 16.5586 9.20312C16.5742 9.13281 16.6133 9.08984 16.6758 9.07422C16.6914 9.01172 16.7148 8.96875 16.7461 8.94531C16.7539 8.92188 16.7578 8.89844 16.7578 8.875C16.7656 8.85156 16.7812 8.83203 16.8047 8.81641C16.8281 8.73828 16.8438 8.68359 16.8516 8.65234C16.8594 8.61328 16.875 8.57812 16.8984 8.54688C16.9141 8.53125 16.9336 8.52344 16.957 8.52344C16.9883 8.52344 17.0117 8.51562 17.0273 8.5C17.0273 8.44531 17.0195 8.39453 17.0039 8.34766C16.9883 8.29297 16.9805 8.23438 16.9805 8.17188C16.9805 8.13281 16.9805 8.09766 16.9805 8.06641C16.9883 8.03516 16.9883 8 16.9805 7.96094C16.957 7.90625 16.9453 7.87109 16.9453 7.85547C16.9453 7.83203 16.9453 7.8125 16.9453 7.79688C16.9219 7.71094 16.9141 7.64844 16.9219 7.60938C16.9297 7.57031 16.9336 7.53125 16.9336 7.49219C16.9023 7.38281 16.8867 7.29688 16.8867 7.23438C16.8945 7.17969 16.8906 7.14844 16.875 7.14062C16.8672 7.13281 16.8633 7.12109 16.8633 7.10547C16.8633 7.06641 16.8672 7.03516 16.875 7.01172C16.8828 6.98047 16.8789 6.94922 16.8633 6.91797C16.7617 6.90234 16.6602 6.90625 16.5586 6.92969C16.457 6.94531 16.3398 6.94531 16.207 6.92969Z" fill="#ED39A5"/>
</svg>
