<svg width="46" height="61" viewBox="0 0 46 61" fill="none" xmlns="http://www.w3.org/2000/svg">
<path d="M23.2138 0.97937C10.9156 0.97937 0.5 11.455 0.5 23.8619C0.5 36.8556 12.5731 50.1437 20.6938 59.4831C20.7256 59.5206 22.0381 60.9775 23.6544 60.9775H23.7969C25.415 60.9775 26.7181 59.5206 26.75 59.4831C34.37 50.7231 45.5 36.2762 45.5 23.8619C45.5 11.4531 37.3756 0.97937 23.2138 0.97937ZM23.9656 56.9669C23.9 57.0325 23.8044 57.1056 23.72 57.1675C23.6338 57.1075 23.54 57.0325 23.4706 56.9669L22.49 55.8381C14.7912 47.0069 4.24813 34.9112 4.24813 23.86C4.24813 13.4875 12.9331 4.72562 23.2119 4.72562C36.0163 4.72562 41.7481 14.335 41.7481 23.86C41.7481 32.2487 35.765 43.39 23.9656 56.9669ZM23.0656 12.3325C16.8537 12.3325 11.8156 17.3687 11.8156 23.5825C11.8156 29.7962 16.8537 34.8325 23.0656 34.8325C29.2775 34.8325 34.3156 29.7944 34.3156 23.5825C34.3156 17.3706 29.2794 12.3325 23.0656 12.3325ZM23.0656 31.0825C18.9294 31.0825 15.4794 27.6362 15.4794 23.5C15.4794 19.3637 18.8431 16 22.9794 16C27.1175 16 30.4794 19.3637 30.4794 23.5C30.4813 27.6362 27.2037 31.0825 23.0656 31.0825Z" fill="#ED39A5"/>
</svg>
