<svg width="56" height="56" viewBox="0 0 56 56" fill="none" xmlns="http://www.w3.org/2000/svg">
<path fill-rule="evenodd" clip-rule="evenodd" d="M28 43C36.2842 43 43 36.2842 43 28C43 19.7157 36.2842 13 28 13C19.7157 13 13 19.7157 13 28C13 36.2842 19.7157 43 28 43ZM28 38C33.5228 38 38 33.5228 38 28C38 22.4771 33.5228 18 28 18C22.4771 18 18 22.4771 18 28C18 33.5228 22.4771 38 28 38Z" fill="#ED39A5"/>
<path d="M43 10.5C41.6193 10.5 40.5 11.6193 40.5 13C40.5 14.3807 41.6193 15.5 43 15.5C44.3807 15.5 45.5 14.3807 45.5 13C45.5 11.6193 44.3807 10.5 43 10.5Z" fill="#ED39A5"/>
<path fill-rule="evenodd" clip-rule="evenodd" d="M2.1349 8.69015C0.5 11.8988 0.5 16.0992 0.5 24.5V31.5C0.5 39.9007 0.5 44.1012 2.1349 47.3097C3.573 50.1322 5.8677 52.427 8.69015 53.865C11.8988 55.5 16.0992 55.5 24.5 55.5H31.5C39.9007 55.5 44.1012 55.5 47.3097 53.865C50.1322 52.427 52.427 50.1322 53.865 47.3097C55.5 44.1012 55.5 39.9007 55.5 31.5V24.5C55.5 16.0992 55.5 11.8988 53.865 8.69015C52.427 5.8677 50.1322 3.573 47.3097 2.1349C44.1012 0.5 39.9007 0.5 31.5 0.5H24.5C16.0992 0.5 11.8988 0.5 8.69015 2.1349C5.8677 3.573 3.573 5.8677 2.1349 8.69015ZM31.5 5.5H24.5C20.2171 5.5 17.3056 5.5039 15.0552 5.68775C12.8631 5.86685 11.7421 6.19148 10.9601 6.58993C9.07848 7.54868 7.54868 9.07848 6.58993 10.9601C6.19148 11.7421 5.86685 12.8631 5.68775 15.0552C5.5039 17.3056 5.5 20.2171 5.5 24.5V31.5C5.5 35.783 5.5039 38.6943 5.68775 40.9448C5.86685 43.137 6.19148 44.258 6.58993 45.04C7.54868 46.9215 9.07848 48.4512 10.9601 49.41C11.7421 49.8085 12.8631 50.1333 15.0552 50.3123C17.3056 50.496 20.2171 50.5 24.5 50.5H31.5C35.783 50.5 38.6943 50.496 40.9448 50.3123C43.137 50.1333 44.258 49.8085 45.04 49.41C46.9215 48.4512 48.4512 46.9215 49.41 45.04C49.8085 44.258 50.1333 43.137 50.3123 40.9448C50.496 38.6943 50.5 35.783 50.5 31.5V24.5C50.5 20.2171 50.496 17.3056 50.3123 15.0552C50.1333 12.8631 49.8085 11.7421 49.41 10.9601C48.4512 9.07848 46.9215 7.54868 45.04 6.58993C44.258 6.19148 43.137 5.86685 40.9448 5.68775C38.6943 5.5039 35.783 5.5 31.5 5.5Z" fill="#ED39A5"/>
</svg>
