<svg width="50" height="50" viewBox="0 0 50 50" fill="none" xmlns="http://www.w3.org/2000/svg">
<path d="M2.5 8.75C2.5 30.151 19.849 47.5 41.25 47.5C42.2155 47.5 43.1728 47.4647 44.1208 47.3952C45.2085 47.3155 45.7523 47.2758 46.2475 46.9908C46.6575 46.7548 47.0462 46.3363 47.2517 45.91C47.5 45.3955 47.5 44.7952 47.5 43.595V36.5518C47.5 35.5423 47.5 35.0375 47.3338 34.605C47.1873 34.2228 46.9487 33.8825 46.6397 33.614C46.29 33.31 45.8155 33.1375 44.867 32.7925L36.85 29.8773C35.7462 29.476 35.1943 29.2752 34.6708 29.3092C34.209 29.3392 33.7648 29.497 33.3873 29.7645C32.9593 30.0677 32.6573 30.5713 32.053 31.5785L30 35C23.3753 31.9998 18.0048 26.6223 15 20L18.4216 17.947C19.4286 17.3428 19.9322 17.0407 20.2355 16.6126C20.503 16.2352 20.6608 15.7909 20.6908 15.3292C20.7248 14.8057 20.524 14.2538 20.1227 13.1501L17.2075 5.13302C16.8625 4.1844 16.69 3.71007 16.3861 3.36025C16.1175 3.05123 15.7772 2.81288 15.3951 2.66613C14.9624 2.5 14.4577 2.5 13.4483 2.5H6.40502C5.2047 2.5 4.60452 2.5 4.08995 2.74813C3.66375 2.95365 3.24535 3.34252 3.00925 3.75257C2.7242 4.24767 2.68437 4.79155 2.60472 5.87932C2.53532 6.82715 2.5 7.78445 2.5 8.75Z" stroke="#ED39A5" stroke-width="5" stroke-linecap="round" stroke-linejoin="round"/>
</svg>
