<svg width="60" height="60" viewBox="0 0 60 60" fill="none" xmlns="http://www.w3.org/2000/svg">
<path d="M30 0C13.4297 0 0 13.4297 0 30C0 46.5703 13.4297 60 30 60C46.5703 60 60 46.5703 60 30C60 13.4297 46.5703 0 30 0ZM41.9766 25.3359C41.9883 25.5938 41.9883 25.8633 41.9883 26.1328C41.9883 34.2773 35.7891 43.6758 24.4453 43.6758C20.9648 43.6758 17.7188 42.6563 15 40.9102C15.4805 40.9688 15.9727 40.9922 16.4766 40.9922C19.3594 40.9922 22.0195 40.0078 24.1289 38.3555C21.4336 38.3086 19.1484 36.5273 18.375 34.0781C18.75 34.1484 19.1367 34.1836 19.5352 34.1836C20.0977 34.1836 20.6484 34.1133 21.1641 33.9609C18.3398 33.3984 16.2187 30.9023 16.2187 27.9141V27.8438C17.0508 28.3008 18 28.582 19.0078 28.6172C17.3555 27.5156 16.2656 25.6172 16.2656 23.4844C16.2656 22.3594 16.5703 21.293 17.0977 20.3789C20.1445 24.1172 24.6797 26.5664 29.8008 26.8242C29.6953 26.3789 29.6367 25.9102 29.6367 25.418C29.6367 22.0195 32.4023 19.2539 35.8008 19.2539C37.5703 19.2539 39.1758 20.0039 40.3008 21.1992C41.707 20.918 43.0195 20.4141 44.2148 19.6992C43.7578 21.1406 42.7734 22.3477 41.5078 23.1094C42.75 22.957 43.9453 22.6289 45.0469 22.1367C44.2266 23.3789 43.1836 24.457 41.9766 25.3359Z" fill="#ED39A5"/>
</svg>
