<svg width="54" height="54" viewBox="0 0 54 54" fill="none" xmlns="http://www.w3.org/2000/svg">
<path d="M32 36.168C30.6875 36.703 29.238 37 27.7142 37C21.7969 37 17 32.5228 17 27C17 21.4771 21.7969 17 27.7142 17C29.238 17 30.6875 17.2969 32 17.8321" stroke="black" stroke-width="3.75" stroke-linecap="round"/>
<path d="M14.5 5.34455C18.1772 3.21743 22.4465 2 27 2C40.807 2 52 13.1929 52 27C52 40.807 40.807 52 27 52C13.1929 52 2 40.807 2 27C2 22.4465 3.21743 18.1772 5.34455 14.5" stroke="black" stroke-width="3.75" stroke-linecap="round"/>
</svg>
